<svg version="1.1" id="Icon_Set" xmlns="http://www.w3.org/2000/svg" x="0" y="0" viewBox="0 0 512 512" style="enable-background:new 0 0 512 512" xml:space="preserve"><style>.st1{fill:#fd919e}.st2{fill:#4c4372}</style><g id="Health_Insurance"><circle cx="256" cy="256" r="207" style="fill:#f0c48a"/><path style="fill:#fff" d="M330.199 391.417H122.687V120.582h151.264l56.248 56.247z"/><path style="fill:#7babf1" d="M273.951 176.829h56.248l-28.124-28.123-28.124-28.124z"/><path style="fill:#d3e6f8" d="M295.734 176.829h34.465v214.588h-34.465z"/><path class="st1" d="M272.508 203.913h-30.263V173.65h-31.604v30.263h-30.264v31.604h30.264v30.264h31.604v-30.264h30.263z"/><path class="st2" d="M242.245 271.781h-31.604a6 6 0 0 1-6-6v-24.263h-24.263a6 6 0 0 1-6-6v-31.604a6 6 0 0 1 6-6h24.263V173.65a6 6 0 0 1 6-6h31.604a6 6 0 0 1 6 6v24.263h24.263a6 6 0 0 1 6 6v31.604a6 6 0 0 1-6 6h-24.263v24.263a6.001 6.001 0 0 1-6 6.001zm-25.604-12h19.604v-24.263a6 6 0 0 1 6-6h24.263v-19.604h-24.263a6 6 0 0 1-6-6V179.65h-19.604v24.263a6 6 0 0 1-6 6h-24.263v19.604h24.263a6 6 0 0 1 6 6v24.264z"/><path class="st2" d="M330.198 397.417H122.687a6 6 0 0 1-6-6V120.583a6 6 0 0 1 6-6h151.264c1.592 0 3.117.632 4.242 1.757l56.247 56.247a5.997 5.997 0 0 1 1.758 4.243v214.588a6 6 0 0 1-6 5.999zm-201.511-12h195.511V179.315l-52.732-52.732H128.687v258.834z"/><path class="st2" d="M330.198 182.83h-56.247a6 6 0 0 1-6-6v-56.247a5.999 5.999 0 0 1 10.242-4.242l56.247 56.247a6 6 0 0 1-4.242 10.242zm-50.247-12h35.762l-35.762-35.762v35.762z"/><g><path class="st2" d="M295.733 298.782H157.152a6 6 0 1 1 0-12h138.582a6 6 0 1 1-.001 12z"/></g><g><path class="st2" d="M295.733 332.338H157.152a6 6 0 1 1 0-12h138.582a6 6 0 1 1-.001 12z"/></g><g><path class="st2" d="M295.733 365.894H157.152a6 6 0 1 1 0-12h138.582a6 6 0 1 1-.001 12z"/></g><g><path class="st1" d="M271.084 270.009v19.019c0 42.239 22.534 81.27 59.115 102.39 36.58-21.12 59.115-60.15 59.115-102.39v-19.019l-59.115-34.13-59.115 34.13z"/><path d="M389.313 289.028v-19.019l-27.448-15.847c7.701 87.309-31.666 137.256-31.666 137.256 36.58-21.12 59.114-60.151 59.114-102.39z" style="fill:#e8677d"/><path class="st2" d="M330.198 397.417a5.997 5.997 0 0 1-3-.804c-38.313-22.12-62.114-63.345-62.114-107.586v-19.019a6 6 0 0 1 3-5.196l59.114-34.13a5.999 5.999 0 0 1 6 0l59.115 34.13a6.002 6.002 0 0 1 3 5.196v19.019c0 44.241-23.801 85.466-62.115 107.586a5.992 5.992 0 0 1-3 .804zm-53.114-123.944v15.554c0 38.799 20.265 75.031 53.114 95.398 32.85-20.367 53.115-56.599 53.115-95.398v-15.554l-53.115-30.666-53.114 30.666z"/><path class="st2" d="M330.198 341.145a6.003 6.003 0 0 1-4.463-1.989l-28.123-31.292a6 6 0 1 1 8.926-8.021l23.502 26.15 31.061-37.065a5.999 5.999 0 0 1 8.452-.745 5.999 5.999 0 0 1 .745 8.452l-35.501 42.363a5.998 5.998 0 0 1-4.495 2.145c-.034.002-.07.002-.104.002z"/></g></g></svg>